<?xml version="1.0" standalone="no"?>
<!DOCTYPE svg PUBLIC "-//W3C//DTD SVG 20010904//EN"
 "http://www.w3.org/TR/2001/REC-SVG-20010904/DTD/svg10.dtd">
<svg version="1.0" xmlns="http://www.w3.org/2000/svg"
 width="52.000000pt" height="52.000000pt" viewBox="0 0 52.000000 52.000000"
 preserveAspectRatio="xMidYMid meet">

<g transform="translate(0.000000,52.000000) scale(0.100000,-0.100000)"
fill="#000000" stroke="none">
<path d="M113 390 c-16 -6 -23 -18 -23 -35 0 -26 16 -35 22 -11 2 9 22 -3 58
-35 l55 -49 -55 -49 c-36 -32 -56 -44 -58 -35 -6 24 -22 15 -22 -11 0 -18 7
-28 26 -35 34 -13 330 -13 355 0 17 10 19 22 19 130 0 108 -2 120 -19 130 -24
12 -327 12 -358 0z m336 -20 c0 -3 -34 -33 -75 -68 -51 -44 -79 -62 -92 -57
-9 3 -48 33 -85 68 l-69 62 161 0 c89 0 161 -2 160 -5z m21 -110 c0 -50 -3
-90 -7 -90 -5 1 -30 21 -58 45 l-49 45 49 45 c28 24 53 44 58 45 4 0 7 -40 7
-90z m-199 -36 c16 -14 20 -14 43 1 21 14 28 15 44 3 23 -16 92 -76 92 -80 0
-2 -73 -3 -161 -3 l-161 0 53 48 c58 52 65 54 90 31z"/>
<path d="M60 290 c0 -5 18 -10 41 -10 24 0 38 4 34 10 -3 6 -22 10 -41 10 -19
0 -34 -4 -34 -10z"/>
<path d="M30 230 c0 -13 97 -13 105 0 4 6 -15 10 -49 10 -31 0 -56 -4 -56 -10z"/>
</g>
</svg>
